<svg xmlns="http://www.w3.org/2000/svg" viewBox="0 0 512 512" style="height: 512px; width: 512px;"><g class="" transform="translate(1,1)" style=""><g><path d="M375.483 251.243L265.503 302.381L265.716 485.762L477.01 266.346L390.017 244.536Z" class="" fill="#ffffff" fill-opacity="1" stroke="#000000" stroke-opacity="1" stroke-width="8"></path><path d="M362.747 359.869L356.8 374.568L308.196 365.613L313.203 352.781C317.939 349.28 322.451 345.487 326.713 341.423C332.649 335.99 338.186 330.136 343.279 323.906C347.862 318.197 352.073 312.198 355.885 305.948C359.578 300.249 362.762 294.236 365.399 287.978L379.467 290.488C373.22 305.377 363.1 320.187 349.106 334.918C340.242 344.011 333.36 350.223 328.461 353.554Z" class="" fill="#ffffff" fill-opacity="1"></path><path d="M121.603 244.334L36.893 266.097L246.474 486L246.474 302.38L136.528 251.243Z" class="" fill="#ffffff" fill-opacity="1" stroke="#000000" stroke-opacity="1" stroke-width="8"></path><path d="M140.75 295.186C149.457 293.592 158.413 296.101 165.023 301.988C169.55 306.04 173.347 310.839 176.249 316.176L163.168 318.852C161.779 316.121 159.96 313.631 157.78 311.478C154.323 308.227 150.569 306.943 146.518 307.625L146.031 307.72C143.604 308.1 141.604 309.824 140.869 312.168C140.013 314.546 140.631 317.722 142.665 321.539C145.385 326.606 148.988 329.615 153.475 330.566C156.318 331.017 159.219 330.948 162.038 330.363L163.905 330.019L169.696 340.841C165.431 341.792 162.687 342.886 161.466 344.123C159.326 346.216 159.469 349.526 161.895 354.053C163.284 356.793 165.388 359.107 167.984 360.749C170.167 362.166 172.802 362.713 175.369 362.283L175.785 362.2C178.956 361.557 180.649 359.972 180.864 357.443C181.125 354.873 180.209 351.699 178.116 347.929L190.496 345.384C192.314 348.946 193.692 352.715 194.599 356.61C195.136 359.744 194.915 362.961 193.957 365.993C193.193 368.144 191.817 370.025 189.997 371.404C187.596 373.068 184.854 374.173 181.97 374.639L180.78 374.853C174.81 375.871 168.671 374.923 163.286 372.153C157.203 369.071 152.256 364.136 149.158 358.061C146.74 353.534 145.872 349.471 146.554 345.871C146.809 343.984 147.698 342.239 149.075 340.924L149.004 340.924C147.775 341.131 145.428 340.298 141.964 338.427C136.402 335.282 131.905 330.549 129.048 324.834C125.551 318.325 124.457 312.192 125.766 306.436C127.074 300.68 131.633 297.013 139.442 295.436Z" class="" fill="#ffffff" fill-opacity="1"></path><path d="M27.19 248.865L135.97 132.556C136.444 132.508 136.923 132.508 137.397 132.556L137.551 132.556C139.644 132.786 140.592 134.023 140.393 136.266C139.927 139.182 138.8 141.953 137.099 144.366C134.516 148.397 131.219 151.923 127.371 154.771C124.763 156.73 119.748 159.901 112.327 164.285C103.796 169.288 97.28 174.212 92.777 179.055C88.465 183.487 84.608 188.34 81.264 193.541L114.171 197.299L122.353 184.336L101.386 181.958C102.862 180.55 104.453 179.269 106.143 178.128C107.729 177.058 110.544 175.35 114.587 173.003L121.009 169.256C125.548 166.697 129.865 163.762 133.912 160.48C138.807 156.356 143.028 151.493 146.422 146.066C150.982 138.835 153.147 132.85 152.916 128.109C152.726 124.16 150.811 121.675 147.232 120.604L227.03 35.443L124.933 215.019L119.225 225.079Z" class="" fill="#ffffff" fill-opacity="1" stroke="#000000" stroke-opacity="1" stroke-width="8"></path><path d="M394.428 176.891C391.883 173.252 390.631 170.414 390.67 168.376C390.67 166.343 391.86 165.177 394.238 164.928L394.808 164.928C397.289 164.938 399.706 165.723 401.718 167.175C404.816 169.338 407.476 172.07 409.555 175.226C412.013 178.746 413.25 181.545 413.265 183.623C413.265 185.716 412.077 186.881 409.769 187.19L409.175 187.19C406.661 187.162 404.223 186.328 402.218 184.812C399.151 182.694 396.509 180.02 394.428 176.927Z" class="" fill="#ffffff" fill-opacity="1"></path><path d="M285.018 35.371L368.966 125.005L367.777 125.005C367.397 125.005 366.802 125.005 366.314 125.112C361.097 125.707 358.323 127.994 357.99 131.974C357.657 135.954 359.333 140.536 363.02 145.721C364.917 148.367 367.051 150.835 369.395 153.095C372.379 155.93 375.806 158.259 379.539 159.992C378.128 161.919 377.894 164.579 378.837 167.972C380.074 171.959 381.971 175.71 384.45 179.068C388.517 184.943 393.687 189.972 399.673 193.874C405.072 197.386 410.427 199.031 415.739 198.809C416.279 198.809 416.818 198.766 417.357 198.679C423.208 198.02 426.284 195.396 426.585 190.806C426.678 189.174 426.522 187.538 426.122 185.953L484.811 248.639L393.239 225.698L387.139 214.995Z" class="selected" fill="#ffffff" fill-opacity="1" stroke="#000000" stroke-opacity="1" stroke-width="8"></path><path d="M383.238 140.298L385.688 142.915C386.139 143.485 386.591 144.104 387.043 144.699C388.851 147.291 389.766 149.456 389.766 151.228C389.766 152.999 388.732 154.01 386.639 154.248L386.127 154.248C383.946 154.255 381.82 153.572 380.05 152.298C377.61 150.673 375.51 148.588 373.866 146.161C371.892 143.331 370.929 141.059 370.988 139.347C371.048 137.634 372.106 136.647 374.175 136.41L374.699 136.41C376.848 136.392 378.948 137.049 380.704 138.289C381.603 138.886 382.451 139.559 383.237 140.299Z" class="" fill="#ffffff" fill-opacity="1"></path><path d="M255.987 26L137.456 231.026L255.988 286.076L374.592 231.026Z" class="" fill="#ffffff" fill-opacity="1" stroke="#000000" stroke-opacity="1" stroke-width="8"></path><path d="M254.797 234.463C243.111 234.463 234.918 230.372 230.217 222.19C225.515 214.008 223.164 202.345 223.164 187.202C223.164 172.059 225.515 160.377 230.216 152.155C234.917 143.934 243.111 139.819 254.798 139.811C266.485 139.811 274.679 143.922 279.38 152.143C284.081 160.365 286.432 172.047 286.432 187.19C286.432 202.333 284.081 213.996 279.38 222.178C274.678 230.36 266.484 234.455 254.798 234.463Z" class="" fill="#ffffff" fill-opacity="1"></path><path d="M265.335 162.656C267 167.968 267.832 176.15 267.832 187.202C267.832 197.747 267 205.814 265.335 211.403C263.67 216.992 260.157 219.767 254.798 219.728C249.438 219.728 245.894 216.953 244.166 211.403C242.437 205.854 241.573 197.787 241.573 187.203C241.573 176.15 242.437 167.968 244.166 162.656C245.895 157.344 249.439 154.688 254.798 154.688C260.141 154.68 263.646 157.332 265.311 162.644Z" class="" fill="#ffffff" fill-opacity="1"></path></g></g></svg>