<svg xmlns="http://www.w3.org/2000/svg" viewBox="0 0 512 512" style="height: 512px; width: 512px;"><g class="" transform="translate(1,1)" style=""><g><path d="M450.169 181.354L379.685 84.29L265.629 47.325L265.629 139.977L362.013 210.008Z" class="" fill="#ffffff" fill-opacity="1" stroke="#000000" stroke-opacity="1" stroke-width="8"></path><path d="M358.709 152.938C358.125 155.307 357.106 157.547 355.705 159.544C352.912 163.45 348.562 165.952 343.781 166.401C338.749 167.013 333.506 165.328 328.052 161.345C322.599 157.362 319.399 152.883 318.453 147.906C317.441 143.223 318.507 138.33 321.375 134.492C322.852 132.552 324.675 130.902 326.753 129.626C329.034 128.155 332.043 127.631 335.779 128.052C334.22 124.814 333.624 121.197 334.062 117.631C334.549 114.074 335.936 110.7 338.092 107.829C341.29 103.329 346.267 100.419 351.758 99.839C357.513 99.1 363.44 100.957 369.537 105.409C375.634 109.86 379.076 114.844 379.863 120.361C380.706 125.738 379.324 131.227 376.036 135.565C373.955 138.497 371.149 140.839 367.891 142.362C364.717 143.841 361.151 144.259 357.721 143.554C359.08 147.195 359.409 150.323 358.71 152.938Z" class="" fill="#ffffff" fill-opacity="1"></path><path d="M347.978 144.651C348.265 146.861 347.646 149.094 346.261 150.84C341.983 156.199 333.509 154.917 331.007 148.533C330.832 148.086 330.693 147.625 330.592 147.155C330.345 144.862 331.033 142.567 332.5 140.788C333.729 138.932 335.647 137.644 337.83 137.21C340.142 136.878 342.486 137.541 344.281 139.035C346.272 140.296 347.636 142.341 348.038 144.663Z" class="selected" fill="#ffffff" fill-opacity="1"></path><path d="M357.518 132.881C352.138 133.384 347.224 129.808 346.046 124.535C345.681 122.062 346.515 119.431 348.55 116.641C350.06 114.243 352.448 112.531 355.204 111.871C360.635 111.337 365.603 114.965 366.747 120.301C366.967 123.115 366.081 125.904 364.278 128.076C362.315 130.875 360.097 132.477 357.625 132.882Z" class="" fill="#ffffff" fill-opacity="1"></path><path d="M246.55 139.977L246.55 47.325L132.494 84.29L62.01 181.354L150.166 209.972Z" class="" fill="#ffffff" fill-opacity="1" stroke="#000000" stroke-opacity="1" stroke-width="8"></path><path d="M133.89 118.179L171.785 91.659C174.368 95.464 176.093 99.785 176.841 104.323C177.874 109.093 176.944 115.564 174.051 123.736C172.232 128.458 170.781 133.314 169.71 138.26C169.048 141.848 169.823 145.552 171.868 148.574C173.275 150.743 175.418 152.331 177.902 153.046C180.402 153.652 183.041 153.071 185.056 151.472C188.363 149.159 189.751 146.349 189.218 143.042C188.52 140.291 187.307 137.697 185.641 135.398L196.218 128.005C199.334 132.838 201.142 137.238 201.643 141.205C202.605 148.757 199.378 155.117 191.961 160.284C186.102 164.386 180.306 166.024 174.575 165.197C168.844 164.37 164.106 161.29 160.361 155.955C157.545 152.041 156.145 147.285 156.391 142.469C156.81 138.15 157.859 133.916 159.503 129.901L161.697 123.76C163.072 119.92 163.959 117.213 164.356 115.64C164.753 114.083 164.899 112.473 164.786 110.87L140.626 127.778Z" class="" fill="#ffffff" fill-opacity="1"></path><path d="M198.59 333.591L313.588 333.591L349.098 224.221L256.089 156.623L163.08 224.222Z" class="" fill="#ffffff" fill-opacity="1" stroke="#000000" stroke-opacity="1" stroke-width="8"></path><path d="M287.856 238.519C286.153 236.57 283.642 235.522 281.059 235.681C277.02 235.681 274.274 237.188 272.819 240.201C271.795 242.863 271.289 245.695 271.329 248.547L258.474 248.547C258.689 242.8 259.73 238.158 261.598 234.62C265.144 227.879 271.44 224.508 280.487 224.508C287.641 224.508 293.329 226.495 297.55 230.47C301.771 234.445 303.85 239.656 303.787 246.103C303.846 250.923 302.265 255.62 299.303 259.423C296.52 262.751 293.266 265.655 289.644 268.043L284.326 271.812C280.995 274.197 278.718 275.906 277.494 276.939C276.269 277.992 275.222 279.237 274.394 280.624L303.882 280.624L303.882 292.309L257.675 292.309C257.743 287.711 258.809 283.183 260.8 279.038C262.692 274.538 267.163 269.768 274.214 264.728C278.425 261.903 282.412 258.758 286.139 255.32C288.738 252.761 290.228 249.284 290.289 245.638C290.366 243.045 289.502 240.513 287.856 238.508Z" class="" fill="#ffffff" fill-opacity="1"></path><path d="M208.249 236.707C211.191 236.65 214.125 236.371 217.025 235.872C219.51 235.374 221.783 234.126 223.536 232.295C224.775 230.911 225.667 229.251 226.136 227.453C226.418 226.575 226.59 225.666 226.648 224.746L237.738 224.746L237.738 292.286L224.132 292.286L224.132 245.733L208.25 245.733L208.25 236.695Z" class="" fill="#ffffff" fill-opacity="1"></path><path d="M196.468 352.67L142.034 427.71L256.089 464.675L370.145 427.71L315.711 352.67L196.468 352.67Z" class="" fill="#ffffff" fill-opacity="1" stroke="#000000" stroke-opacity="1" stroke-width="8"></path><path d="M273.738 436.462C269.978 441.279 264.139 443.684 256.221 443.676C247.714 443.676 241.442 440.119 237.404 433.004C234.264 427.439 232.694 420.285 232.694 411.54C232.642 407.337 232.861 403.135 233.35 398.96C233.902 393.94 235.438 389.077 237.87 384.651C239.729 381.461 242.325 378.762 245.441 376.781C248.807 374.727 252.696 373.691 256.638 373.8C262.91 373.8 267.91 375.39 271.638 378.57C275.382 381.82 277.65 386.449 277.923 391.4L264.758 391.4C264.69 390.113 264.255 388.872 263.506 387.823C262.059 385.697 259.598 384.491 257.031 384.651C252.715 384.651 249.643 387.072 247.814 391.913C246.606 395.747 245.916 399.725 245.763 403.742C247.296 401.872 249.26 400.403 251.487 399.461C259.179 396.566 267.854 398.431 273.677 404.231C277.578 408.472 279.644 414.082 279.425 419.84C279.498 425.858 277.508 431.72 273.785 436.45Z" class="" fill="#ffffff" fill-opacity="1"></path><path d="M263.006 411.85C264.929 413.949 265.891 416.97 265.891 420.913C266.03 423.997 265.136 427.039 263.351 429.558C261.721 431.748 259.116 432.992 256.388 432.885C253.506 432.945 250.756 431.674 248.935 429.439C246.935 426.923 245.918 423.765 246.073 420.555C246.073 416.055 247.377 412.796 249.984 410.777C251.678 409.432 253.783 408.708 255.946 408.727C258.665 408.664 261.274 409.802 263.077 411.838Z" class="" fill="#ffffff" fill-opacity="1"></path><path d="M382.153 299.655L410.032 308.002L405.262 324.159Z" class="" fill="#f8e71c" fill-opacity="1" stroke="#ff0000" stroke-opacity="1" stroke-width="8"></path><path d="M367.843 228.109L331.033 341.389L385.516 416.382L456 319.366L456 199.503Z" class="" fill="#ffffff" fill-opacity="1" stroke="#000000" stroke-opacity="1" stroke-width="8"></path><path d="M433.916 315.061L419.989 310.899L412.333 336.513L401.22 333.198L369.024 297.675L373.294 283.366L413.728 295.446L415.911 288.124L425.867 291.094L423.685 298.414L437.613 302.576Z" class="" fill="#ffffff" fill-opacity="1"></path><path d="M144.156 228.109L56 199.491L56 319.425L126.484 416.441L180.966 341.449Z" class="" fill="#ffffff" fill-opacity="1" stroke="#000000" stroke-opacity="1" stroke-width="8"></path><path d="M72.54 286.24L116.97 272.24L112.2 257.097L120.821 254.378C121.76 257.167 122.908 259.882 124.256 262.498C125.467 264.715 127.326 266.509 129.586 267.638C131.279 268.405 133.131 268.756 134.987 268.664C135.907 268.67 136.824 268.562 137.718 268.342L141.045 278.918L76.654 299.19Z" class="" fill="#ffffff" fill-opacity="1" stroke="#ffffff" stroke-opacity="1" stroke-width="8"></path><path d="M91.01 344.836L86.92 331.862L131.35 317.863L126.58 302.719L135.202 300.001C136.141 302.79 137.289 305.504 138.636 308.121C139.846 310.339 141.706 312.132 143.966 313.261C145.659 314.029 147.511 314.38 149.368 314.286C150.288 314.292 151.205 314.184 152.098 313.964L155.426 324.541Z" class="" fill="#ffffff" fill-opacity="1"></path></g></g></svg>