<svg xmlns="http://www.w3.org/2000/svg" viewBox="0 0 512 512" style="height: 512px; width: 512px;"><g class="" transform="translate(1,1)" style=""><g><path d="M248 20.3L72.33 132.6L248 128.8Z" class="" fill="#ffffff" fill-opacity="1" stroke="#000000" stroke-opacity="1" stroke-width="8"></path><path d="M264 20.3L264 128.8L439.7 132.6Z" class="" fill="#ffffff" fill-opacity="1" stroke="#000000" stroke-opacity="1" stroke-width="8"></path><path d="M315.4 79.2C321.5 82.7 323.6 86.4 330.5 83.4C341.2 84.2 352.8 89.2 358.1 99.1C362.8 103.6 359.6 111.7 352.9 111.7C343.2 111.8 333.2 105.6 338.3 103.4C343 101.4 353 104.3 348.3 97.9C344.7 93.4 337.3 90.1 332 92C330.4 98.8 322.6 96 320 91.3C317.7 85.5 310.9 83.1 305 83.4C298.9 86.1 306.6 92.2 310.3 93.3C318.2 95.5 310.5 100.8 306.2 98.4C302 96 291.2 88.8 292.7 80.1C298.5 72.71 308.5 75.48 315.4 79.2Z" class="" fill="#ffffff" fill-opacity="1"></path><path d="M206.9 75.7C212.4 76.2 219.2 78.7 217.1 85.6C212.8 92.6 207.3 98.7 199 100.4C192.5 103.8 184.1 104.8 177.4 102.3C173.7 100 163.9 93 162.5 98.9C160.4 113.7 163.2 112 151.4 116.7L151.4 92.3C161.3 88.4 172.5 87.8 181.7 93.6C189.7 97.8 201.1 95.1 205.9 87.9C207.3 81.4 197.8 83.3 193.7 84.5C191 76.3 201.6 77 206.9 75.7Z" class="" fill="#ffffff" fill-opacity="1"></path><path d="M241.9 144.9L55.39 149L126.6 341.9Z" class="" fill="#ffffff" fill-opacity="1" stroke="#000000" stroke-opacity="1" stroke-width="8"></path><path d="M270.1 144.9L385.4 341.9L456.6 149Z" class="" fill="#ffffff" fill-opacity="1" stroke="#000000" stroke-opacity="1" stroke-width="8"></path><path d="M256 152.4L138.9 352.6L373.1 352.6Z" class="" fill="#ffffff" fill-opacity="1" stroke="#000000" stroke-opacity="1" stroke-width="8"></path><path d="M389.3 173.5C403.2 181.8 410.8 199.7 411.4 216.5C410.1 230.1 410.7 236.3 396.2 237.9C381.7 239.5 372.3 218.7 366.5 205.3C363.1 195.4 360.7 181.3 368.2 174C374.3 169.2 383.2 169.9 389.3 173.5Z" class="" fill="#ffffff" fill-opacity="1"></path><path d="M165.6 189.6C167.7 193.6 165.1 201 160.8 201.7C155.9 202.4 157 192.4 151.4 190.1C144.5 187.8 137.8 195.7 136.4 201.7C146.8 197.7 156.7 208.8 156.7 218.7C156.3 230.4 148.8 243.5 137 246.8L131.4 246.8C118.7 246.1 113.1 231 117.2 220.2C121.6 204.4 128 186.3 144.4 179.6C152.9 175.7 163.4 182.8 165.6 189.6Z" class="" fill="#ffffff" fill-opacity="1"></path><path d="M379.5 181.2C372.4 181.1 375.1 191.2 376.2 195.7C379.7 207.2 383.5 222.3 395.1 225.7C401.9 224.5 399.5 212.9 398.8 209.2C394.1 198.3 391.7 185.9 379.5 181.2Z" class="" fill="#ffffff" fill-opacity="1"></path><path d="M52 186L52 359.2L113.9 353.5Z" class="" fill="#ffffff" fill-opacity="1" stroke="#000000" stroke-opacity="1" stroke-width="8"></path><path d="M460 186L398.1 353.5L460 359.2Z" class="" fill="#ffffff" fill-opacity="1"></path><path d="M342.1 186.7L370.6 250.2L360.6 254.6L340.6 211.3C334.5 214.3 327.6 220.2 326 209.9C324.7 206 334.5 204.8 334.1 198C333.8 191.1 336.3 185.8 342.1 186.7Z" class="" fill="#ffffff" fill-opacity="1"></path><path d="M130.1 214.1C127.7 219.2 126 224.4 127.4 230C129.1 238.8 140.9 236.4 143 229.2C145.7 224.2 146.9 217.5 142.5 213.5C138.4 210.1 133.6 210.7 130.1 214.1Z" class="" fill="#ffffff" fill-opacity="1"></path><path d="M458.5 255.7C458.4 274.3 459.6 294.9 448.8 311C447.9 312.2 446.6 312.9 445.1 313.5C439.3 309.4 442.1 302.2 446.3 298C447.3 305.3 451.8 295.1 452.9 292.4C454.2 289.2 456.5 274.7 451.9 282.2C452.6 286.2 445.1 295.3 442.6 290.3C437.6 275.9 442.6 259.8 449.6 246.8C455.3 240.6 459.5 251.2 458.5 255.7Z" class="" fill="#ffffff" fill-opacity="1"></path><path d="M59.93 245.5C60.52 245.6 61.27 246.5 62.41 249.1L62.41 310.2C55.11 303.2 57.94 292.2 57.96 283.8C57.96 275.4 59.61 267.5 56.68 260.6C52.06 258.9 50.89 243.6 53.51 247.9C57.92 252.7 58.17 245.2 59.93 245.5Z" class="" fill="#ffffff" fill-opacity="1"></path><path d="M238.7 253.1C246.8 257.6 252.5 267.5 249.5 276.7C247.4 291.9 222.5 297.8 219.1 306.4C217.9 309.4 244.5 308 249.3 308C249.8 312 250.8 318.7 245.5 319.7C231 318.5 215.6 319.1 200.4 319.1C200.8 307.9 207.8 297.8 217.4 292.3C224.3 287.4 232.8 283 235.5 274.4C237.3 269.9 234.9 265.1 230.9 262.9C226.7 260 219.9 260.6 217.7 265.6C215.7 269.4 213.3 274.7 209 275.2C206.1 275.6 200 275.7 201.8 270.3C203.2 264.7 205.2 258.8 210 255.1C218.8 248.8 229.9 248.4 238.7 253.1Z" class="" fill="#ffffff" fill-opacity="1" stroke="#ffffff" stroke-opacity="1" stroke-width="8"></path><path d="M292 251.7C298.8 253.9 304 259.6 306.3 266.3C312.4 281 311.8 299.4 301.9 312.2C297.4 317 291.7 321.3 284.9 321.3C272.4 321.2 262.5 310.2 260.1 298.5C257 285.1 258.3 269.8 267 258.7C273.8 251.1 283 248.4 292 251.7Z" class="" fill="#ffffff" fill-opacity="1"></path><path d="M448.1 259.8C446.5 265.7 444.8 273.2 447.4 279.1C452.5 277.1 452.8 269.5 454 264.6C454.9 258.5 450.5 252 448.1 259.8Z" class="" fill="#ffffff" fill-opacity="1"></path><path d="M271.9 280.9C272.5 291.4 273.6 303.7 281.6 309.1C286.5 310.9 291.3 306.9 292.7 302.4C294.6 296.1 295 289.5 295.1 283C294.9 275.9 293.6 268 288.4 262.9C276.2 258.5 273.1 273.8 271.9 280.9Z" class="" fill="#fff" fill-opacity="1"></path><path d="M434 266.8L434 328L429.6 334.7L429.6 292.4C425 299.9 420.5 301.5 423.5 291.5C429.6 284.4 428.3 274.1 434 266.8Z" class="" fill="#fff" fill-opacity="1"></path><path d="M83.85 279C84.65 282.6 88.97 296.8 85.89 293.8C83.92 292.5 82.27 288.9 82.48 287.7C80.93 284.7 79.52 281.6 78.27 278.5C75.32 282.5 74.31 286.8 75.13 291.9C75.33 290.3 76.31 289.6 78.52 291.2C86.36 303.8 90.69 320.3 85.81 334.7L83.59 335.8C73.23 330 72.19 316.4 70.16 305.8C68.61 293.5 69.37 281.1 72.46 269.1C77.66 265.3 81.62 274.5 83.85 279Z" class="" fill="#fff" fill-opacity="1"></path><path d="M76.8 299.2C72.74 303.9 74.54 312 76.42 317.6C77.53 323.1 83.34 327.8 82.48 319.2C83.17 308.1 80.15 306.5 76.8 299.2Z" class="" fill="#fff" fill-opacity="1"></path><path d="M143.2 368.6L256 491.7L368.8 368.6Z" class="" fill="#fff" fill-opacity="1" stroke="#000000" stroke-opacity="1" stroke-width="8"></path><path d="M121.8 368.9L67.96 373.8L132.2 414.9C129.6 412.2 127.3 409.2 125.1 406.1C119.9 399.2 114.6 392.5 106.2 389.5C97.45 383 102 384.2 109.1 386.9C108.1 385.1 108.4 384.3 109.2 384.3C111.4 384.1 117.6 388.5 119 390.6L143.7 422.2L208.8 463.9Z" class="" fill="#fff" fill-opacity="1" stroke="#000000" stroke-opacity="1" stroke-width="8"></path><path d="M390.2 368.9L347.8 415.2C354.2 412.1 359.1 406.7 364.8 402.8C367.2 401.4 368.5 400.9 369.1 400.9C371.2 400.9 363.7 408 361.4 411.2C352 421 345.4 434.2 332.8 440.3L351.7 415.8C349.4 417.1 345.7 419 343.5 419.9L303.2 463.9L377.7 416.3C383.1 409.6 379.6 410.7 372 415.4L360.6 421.4C372 407.7 391.4 393.1 400.6 385.8C409.8 378.5 416.5 376 408.8 384.3L396.2 400.3C406.2 392.7 397.1 404.2 391.7 405.8C391 406.8 390.3 407.8 389.5 408.7L444 373.8Z" class="selected" fill="#fff" fill-opacity="1" stroke="#000000" stroke-opacity="1" stroke-width="8"></path><path d="M236 385.8L236 429.2L222.6 429.2L222.6 399.2C217.6 397.8 212.2 400.9 207.3 398.9C203.5 396 208.3 392.1 211.8 393C215.1 392.9 219.4 393.2 221.1 389.8C225.5 385.3 230.7 385.4 236 385.8Z" class="" fill="#fff" fill-opacity="1"></path><path d="M265 386.3C277.1 387.5 289.2 386.9 301.6 386.9C303.1 389.9 302.4 394.7 298.3 394.8C290.6 395.1 277.3 393.2 272.4 395.4C264.2 405.9 278.1 399.2 283.8 400.6C290.8 401.7 298.8 403.5 302.9 409.8C305 412.9 305.6 417.1 303.6 420.5C297.8 427.3 286.6 432 278.3 431.4C271 430.8 262.7 430.3 257.7 424.3C251.3 413.7 268.2 417.6 269.9 421.1C275.9 426.4 290.2 423 290.6 416.4C291.2 412.2 288.5 410.1 283.7 408.6C278.9 407.1 271.1 409.6 266.4 410.4C261.7 411.2 256.8 410.9 257.4 406C258.2 401.8 260.1 397.9 260.1 393.5C260.2 390.5 261.8 386.5 265 386.3Z" class="" fill="#fff" fill-opacity="1"></path><path d="M398.5 391.3C398.3 391.1 391.5 397.1 388.6 399.4L372.8 412.5C383.4 406 392.1 400.5 398.5 391.3Z" class="" fill="#fff" fill-opacity="1"></path><path d="M151.5 405.5C153.9 405.5 159 410.1 160.9 412.5L187 443.6C179.3 441.5 173.7 436.5 169.4 429.9C162.9 422.6 158.1 413.3 148.2 410.3C139.2 405.3 143 403.9 150.3 408.1C150 406.2 150.5 405.5 151.5 405.5Z" class="" fill="#fff" fill-opacity="1"></path></g></g></svg>