<svg xmlns="http://www.w3.org/2000/svg" viewBox="0 0 512 512" style="height: 512px; width: 512px;"><g class="" transform="translate(0,0)" style=""><g><path d="M235.11 196.24L252.184 166.777L252.184 196.24L235.11 196.24Z" class="" fill="#f8e71c" fill-opacity="1" stroke="#000000" stroke-opacity="1" stroke-width="8"></path><path d="M486.95 456L25.05 456L256 56Z" class="" fill="#ffffff" fill-opacity="1" stroke="#000000" stroke-opacity="1" stroke-width="8"></path><path d="M128.319 401.167L169.531 378.224L162.829 366.149L103.13 399.452L108.588 409.257C109.43 408.855 110.318 408.559 111.233 408.376C113.055 407.905 114.963 407.876 116.799 408.291C119.272 408.949 121.485 410.348 123.139 412.301C125.012 414.621 126.707 417.079 128.21 419.654L136.204 415.198Z" class="" fill="#ffffff" fill-opacity="1"></path><path d="M273.074 196.24L265.334 196.24L265.334 153.506L250.24 153.506L225.1 195.021L225.1 206.77L252.172 206.77L252.172 221.49L265.334 221.49L265.334 206.77L273.074 206.77L273.074 196.252Z" class="" fill="#ffffff" fill-opacity="1"></path><path d="M404.693 408.69C409.241 400.737 409.446 393.492 405.309 386.955C403.136 383.534 399.577 380.285 394.634 377.21L388.15 388.548C390.655 389.946 392.872 391.807 394.683 394.031C396.598 396.824 396.542 399.996 394.513 403.546C393.354 405.899 391.168 407.581 388.597 408.098C386.01 408.515 383.36 407.983 381.134 406.601C377.955 404.718 375.643 401.66 374.698 398.088C373.545 393.099 372.778 388.028 372.404 382.921C371.527 374.195 369.587 367.868 366.584 363.939C363.941 360.106 360.496 356.892 356.489 354.521L333.209 395.226L343.484 401.106L358.312 375.193C359.114 376.618 359.681 378.164 359.991 379.77C360.304 381.38 360.658 384.242 361.053 388.355L361.693 394.925C361.97 399.309 362.885 403.629 364.41 407.748C366.264 412.264 369.598 416.015 373.865 418.386C379.597 421.663 385.264 422.439 390.867 420.716C396.47 418.993 401.074 414.989 404.681 408.702Z" class="selected" fill="#ffffff" fill-opacity="1"></path></g></g></svg>