<svg xmlns="http://www.w3.org/2000/svg" viewBox="0 0 512 512" style="height: 512px; width: 512px;"><g class="" transform="translate(1,1)" style=""><g><path d="M256 37.143L77.896 343.853L434.104 343.853Z" class="" fill="#ffffff" fill-opacity="1" stroke="#000000" stroke-opacity="1" stroke-width="8"></path><path d="M230.154 49.79L72 164.233L72 322.143Z" class="" fill="#ffffff" fill-opacity="1" stroke="#000000" stroke-opacity="1" stroke-width="8"></path><path d="M281.844 49.79L440 322.144L440 164.232Z" class="" fill="#ffffff" fill-opacity="1" stroke="#000000" stroke-opacity="1" stroke-width="8"></path><path d="M149.328 139.81L149.328 161.596L140.842 171.276L140.842 154.334C138.07 157.574 135.15 160.701 132.457 163.998C135.993 164.291 134.941 169.428 134.664 171.75C132.918 181.286 126.51 189.325 121.26 196.54C119.317 199.084 117.317 201.615 115.252 204.047C110.602 207.447 106.762 208.437 104.477 202.584C104.771 194.778 108.317 187.364 112.523 181.617L117.811 173.699C117.763 176.161 117.911 178.669 117.739 181.104C115.399 185.451 110.973 190.564 111.981 195.712C119.741 196.586 124.201 184.849 126.503 179.132C127.335 176.372 128.611 173.674 125.085 173.698L125.085 166.434Z" class="" fill="#ffffff" fill-opacity="1"></path><path d="M361.458 141.02L406.311 195.484L406.311 202.746L376.007 166.436L376.007 174.908L369.947 167.646C369.792 163.496 368.523 159.269 367.522 155.543C365.662 152.607 363.562 149.839 361.462 147.073Z" class="" fill="#ffffff" fill-opacity="1"></path><path d="M256.07 203.86C264.44 203.86 270.803 205.39 275.158 208.447C279.513 211.474 281.691 215.922 281.691 221.791C281.691 225.715 280.611 228.989 278.448 231.614C276.318 234.24 273.151 236.186 268.95 237.452C273.644 238.75 277.18 240.867 279.56 243.802C281.968 246.704 283.174 250.378 283.174 254.826C283.174 261.683 280.888 266.873 276.316 270.396C271.776 273.886 265.028 275.629 256.07 275.629C247.082 275.629 240.286 273.885 235.684 270.395C231.112 266.873 228.826 261.683 228.826 254.825C228.826 250.378 230.016 246.705 232.396 243.801C234.804 240.866 238.356 238.749 243.051 237.451C238.851 236.186 235.685 234.241 233.554 231.614C231.424 228.989 230.356 225.714 230.356 221.792C230.356 215.955 232.536 211.507 236.89 208.449C241.244 205.391 247.638 203.863 256.07 203.863Z" class="" fill="#ffffff" fill-opacity="1"></path><path d="M256.07 215.072C253.23 215.072 251.035 215.814 249.49 217.297C247.977 218.779 247.22 220.88 247.22 223.597C247.22 226.347 247.977 228.463 249.49 229.945C251.035 231.428 253.23 232.17 256.07 232.17C258.85 232.17 260.996 231.428 262.51 229.945C264.023 228.463 264.78 226.347 264.78 223.598C264.78 220.848 264.023 218.748 262.51 217.298C260.996 215.814 258.85 215.072 256.07 215.072Z" class="" fill="#ffffff" fill-opacity="1"></path><path d="M256.07 243.334C252.734 243.334 250.17 244.246 248.38 246.068C246.587 247.891 245.69 250.501 245.69 253.898C245.69 257.296 246.587 259.906 248.38 261.728C250.17 263.52 252.734 264.416 256.07 264.416C259.375 264.416 261.907 263.52 263.668 261.729C265.428 259.905 266.308 257.295 266.308 253.897C266.308 250.469 265.428 247.859 263.668 246.067C261.908 244.245 259.375 243.333 256.07 243.333Z" class="" fill="#ffffff" fill-opacity="1"></path><path d="M88.7 359.852L256 480.912L423.3 359.852Z" class="" fill="#ffffff" fill-opacity="1" stroke="#000000" stroke-opacity="1" stroke-width="8"></path><path d="M228.12 383.082L282.668 383.082L282.668 387.924C268.262 393.866 261.086 400.821 254.788 413.34L239.028 413.34C246.132 399.537 253.574 395.626 265.698 387.924L228.118 387.924Z" class="selected" fill="#ffffff" fill-opacity="1"></path></g></g></svg>